<?xml version="1.0" encoding="utf-8"?>
<!-- Generator: Adobe Illustrator 22.1.0, SVG Export Plug-In . SVG Version: 6.00 Build 0)  -->
<svg version="1.1" id="Layer_1" xmlns="http://www.w3.org/2000/svg" xmlns:xlink="http://www.w3.org/1999/xlink" x="0px" y="0px"
	 viewBox="0 0 802.5 268.6" style="enable-background:new 0 0 802.5 268.6;" xml:space="preserve">
<style type="text/css">
	.st0{fill:#BB9645;}
	.st1{fill:#0A0B0B;}
	.st2{fill:#FFFFFF;}
	.st3{fill:#231F20;}
	.st4{fill:url(#SVGID_1_);}
	.st5{fill:url(#SVGID_2_);}
	.st6{fill:url(#SVGID_3_);}
	.st7{fill:url(#SVGID_4_);}
	.st8{fill:url(#SVGID_5_);}
	.st9{fill:url(#SVGID_6_);}
	.st10{fill:url(#SVGID_7_);}
	.st11{fill:url(#SVGID_8_);}
	.st12{fill:url(#SVGID_9_);}
	.st13{fill:url(#SVGID_10_);}
	.st14{fill:url(#SVGID_11_);}
	.st15{fill:#1B1B1B;}
	.st16{fill:url(#SVGID_12_);}
	.st17{fill:url(#SVGID_13_);}
	.st18{fill:url(#SVGID_14_);}
	.st19{fill:url(#SVGID_15_);}
	.st20{fill:url(#SVGID_16_);}
	.st21{fill:url(#SVGID_17_);}
	.st22{fill:url(#SVGID_18_);}
	.st23{fill:url(#SVGID_19_);}
	.st24{fill:url(#SVGID_20_);}
	.st25{fill:url(#SVGID_21_);}
	.st26{fill:url(#SVGID_22_);}
</style>
<g>
	<g>
		<g>
			<path class="st3" d="M421.5,104.8c-2.6-2.6-3.9-5.9-3.9-10c0-4.1,1.3-7.4,3.9-10c2.6-2.6,6.1-3.9,10.4-3.9
				c4.3,0,7.8,1.3,10.5,3.9c2.7,2.6,4,5.9,4,10c0,4.1-1.3,7.4-4,10c-2.7,2.6-6.2,3.9-10.5,3.9C427.6,108.7,424.1,107.4,421.5,104.8z
				 M421,119.4h21.9v95H421V119.4z"/>
			<path class="st3" d="M463.1,119.4h20.4v12.9c2.5-3.9,6.2-7.1,10.9-9.6c4.8-2.5,9.7-3.7,14.8-3.7h11.4v19h-11.4
				c-7.2,0-13.1,2.2-17.5,6.7c-4.4,4.4-6.7,10.2-6.7,17.3v52.4h-21.9V119.4z"/>
			<path class="st3" d="M529.5,208.6c-5.9-4.9-8.9-11.4-8.9-19.5v-6.9c0-8,3.1-14.4,9.2-19.2c6.2-4.8,14.2-7.2,24.3-7.2h11.8
				c3.6,0,7.4,0.5,11.4,1.5c4.1,1,7.7,2.4,10.9,4v-11.8c0-3.9-1.3-7.1-3.8-9.5c-2.5-2.4-5.8-3.6-9.9-3.6h-16c-4.2,0-7.6,1-10.1,3
				c-2.5,2-3.8,4.5-3.8,7.7h-21.3c0-8.8,3.2-15.8,9.7-21.1c6.5-5.3,15-8,25.5-8h16c10.7,0,19.2,2.9,25.7,8.7
				c6.5,5.8,9.7,13.4,9.7,22.9v64.9h-20.4v-12c-3,4.1-6.9,7.3-11.4,9.8c-4.6,2.5-9.1,3.7-13.5,3.7h-11.8
				C543.2,215.9,535.4,213.5,529.5,208.6z M565.9,198.8c5.1,0,9.6-1.4,13.7-4.3c4.1-2.9,6.9-6.6,8.6-11.3v-4.6
				c-2.2-1.8-5.2-3.2-9.1-4.3c-3.9-1.1-8.1-1.6-12.4-1.6h-12c-3.8,0-6.9,1-9.2,2.9c-2.4,1.9-3.5,4.4-3.5,7.4v5.3
				c0,3.2,1.2,5.7,3.6,7.6c2.4,1.9,5.6,2.9,9.5,2.9H565.9z"/>
			<path class="st3" d="M642.1,207.2c-5-4.8-7.4-12.4-7.4-22.8v-46.1h-16.8v-18.8h17.3V90.6h21.3v28.8h24.8v18.8h-24.8v45.3
				c0,4.2,0.8,7.2,2.5,9.1c1.6,1.9,4.3,2.9,7.8,2.9h14.5v18.8h-15.6C654.9,214.4,647.1,212,642.1,207.2z"/>
			<path class="st3" d="M706,211.6c-5.9-2.9-10.5-7-13.7-12.4c-3.2-5.3-4.9-11.5-4.9-18.5v-25.5c0-7.4,1.6-13.9,4.9-19.5
				c3.2-5.6,7.8-10,13.7-13.1c5.9-3.1,12.7-4.7,20.5-4.7h15.2c11.5,0,20.8,3.4,27.8,10.1c7,6.7,10.5,15.7,10.5,26.8v19h-70.6v6.9
				c0,5.1,1.6,9.1,4.7,12.2c3.1,3,7.3,4.6,12.5,4.6h14.7c5.1,0,9.2-1.2,12.3-3.7c3.1-2.5,4.7-5.7,4.7-9.8h21.5
				c0,9.6-3.6,17.4-10.7,23.2c-7.1,5.8-16.4,8.8-28,8.8h-14.5C718.7,215.9,711.9,214.5,706,211.6z M758.4,157.5v-2.7
				c0-5.6-1.5-10.1-4.6-13.5c-3-3.4-7-5.1-12-5.1h-15.4c-5.2,0-9.4,1.8-12.7,5.4c-3.2,3.6-4.9,8.3-4.9,14.2v1.7H758.4z"/>
		</g>
		<g>
			<path class="st3" d="M296.6,115c0-4.6,4.3-8.4,9.5-8.4h46.8l34-17.1c-5.2-5.2-12.4-8.3-20.3-8.3h-66.3c-16.1,0-29,12.9-29,28.9
				v39l25.4-13.3V115z"/>
			<path class="st3" d="M395.3,108.6l-25.4,12.8v25.4c0,4.7-4.4,8.5-9.6,8.5h-55.9l-33.2,17.3v21.8v12.4v8.7h10l8.7-0.2
				c3.7-0.9,6.8-4.3,6.8-8.5v-24.7h69.8c15.9,0,28.9-12.9,28.9-28.9V110C395.4,109.5,395.4,109.1,395.3,108.6z"/>
		</g>
	</g>
	<g>
		<path class="st3" d="M38.5,164.3c3.9-0.7,12.4-2.3,22.2-3.9c1.3-0.2,2.3,0.9,2,2.2c-0.6,2.3-1.3,4.6-2.1,6.9
			c-0.3,0.8,0.4,1.7,1.3,1.5c44.7-8.6,76.3-23.6,102.6-44.6c1.4-1.1,2.3-2.7,2.6-4.5c2-13.4-2-20.9-6-24.5c-4.3-3.9-7.6-7.7-31-9.2
			c-13.3-0.5-20.5,0.2-22.9,0.5c-0.4,0-0.6,0.5-0.4,0.8c2.4,3.7,12.8,21.1,9.6,36.9l-5.1-18c-3.3-9.2-8.6-18.3-11.1-21.6
			c-0.7-0.9-0.3-1.9,0.8-2.1c3.1-0.5,9.5-0.8,16.6-1.3c8.3-0.4,16.4-0.1,21.7,0.6c-6-29.1-18.6-39.7-47-41.5V14.7
			c0-0.7-0.6-1.2-1.2-1.2H87c-0.7,0-1.2,0.6-1.2,1.2v27.6c-23.6-0.7-44,1.5-50.5,2.2c-0.8,0.1-1.3,1-0.9,1.7
			c2.2,3.8,11.3,15,15,30.7c-8.5-0.1-17.6,0.9-26.5,4.4c-0.9,0.4-1.2,1.5-0.6,2.3c23.4,28.8,16.6,68.9,14.4,78.9
			C36.4,163.5,37.4,164.5,38.5,164.3z"/>
		<path class="st3" d="M66.2,25.5c0,0-0.6-2.5-0.1-4.6c6.3-1.4,15.4,1.3,15.4,1.3s0-4.1,0-7.5c-4.7-2.2-15.2-1.9-18.6-1.1
			c-3.4,0.8-4,2.4-4.7,3.9c-6.7,0.2-13.9,1.9-13.9,1.9l4.5,2.7l-3.8,4.1C51.2,23.4,66.2,25.5,66.2,25.5z"/>
		<path class="st3" d="M179.9,212.8c-9.6-2.6-7.7-2.6-19.1-4.8c6.4-7.7,26.6-33.1,21.7-41.2c-5.9-9.6-12.8-15.8-10.5-25
			c2.2-9.1,17.5-19.7,21-22.7c3.4-3-2.7-8.4-5.4-6c-2.7,2.3-4.6,4.1-11.2,8.9c-8.1,5.9-14.7,13.3-14,23.6
			c0.7,9.2,0.7,35.3-11.2,49.2c-0.6,0.7-1.8,0-1.4-0.9c2.9-6.5,3.6-15.4,3.1-22.6c-24.8,12.4-47,14.8-61.8,14.8
			c-0.9,0-1-1.2-0.1-1.4c23.7-4.8,59.4-17.2,61.3-22.5c2.2-5.9-0.9-16.6-0.9-16.6s-11.7,5.8-28.7,12.6c-5.6,2.4-11.6,4.7-18.2,6.9
			c-1.4,0.5-2.9,0.9-4.3,1.3c-19.2,6.3-45,12.2-59.3,11.6c-11.6-0.4-19.2-1.5-21.6-1.9c-0.5-0.1-0.9,0.3-0.8,0.8
			c0.3,4.3,1.8,22.6,10.1,31.2c-1.9,0.4-5.2,1.2-7.7,2.5c-2.5,1.3-9.4,8-4.2,7.4c29-3.3,66.3-6.3,83.8-5.8
			c18.6,0.5,55.1,6.2,87.5,11.3C192.9,224.3,184.9,214.2,179.9,212.8z"/>
		<path class="st3" d="M171.1,227.4c-16.9-3.7-45.1-9.1-69.5-9.4c-31-0.4-59.4,3.8-81.8,8.6c-5.1,1.1-3.8,8.7,1.3,8.1
			c29-3.3,62.9-6.5,80.5-6c14.3,0.4,46.8,3.7,68,6.8C174.8,236.3,176.3,228.5,171.1,227.4z"/>
		<path class="st3" d="M138.5,241.9c-11.9-2.6-25.5-4.6-39.4-4.8c-17.6-0.2-33.8,2.1-46.6,4.9c-2.9,0.6-2.2,4.9,0.8,4.6
			c16.5-1.9,35.8-3.7,45.8-3.4c8.2,0.2,23.4,2.2,38.4,4.4C141.1,248.2,142.2,242.7,138.5,241.9z"/>
	</g>
</g>
</svg>
