<?xml version="1.0" encoding="utf-8"?>
<!-- Generator: Adobe Illustrator 22.1.0, SVG Export Plug-In . SVG Version: 6.00 Build 0)  -->
<svg version="1.1" id="Layer_1" xmlns="http://www.w3.org/2000/svg" xmlns:xlink="http://www.w3.org/1999/xlink" x="0px" y="0px"
	 viewBox="0 0 288 288" style="enable-background:new 0 0 288 288;" xml:space="preserve">
<style type="text/css">
	.st0{fill:#BB9645;}
	.st1{fill:#0A0B0B;}
	.st2{fill:#FFFFFF;}
	.st3{fill:#231F20;}
	.st4{fill:url(#SVGID_1_);}
	.st5{fill:url(#SVGID_2_);}
	.st6{fill:url(#SVGID_3_);}
	.st7{fill:url(#SVGID_4_);}
	.st8{fill:url(#SVGID_5_);}
	.st9{fill:url(#SVGID_6_);}
	.st10{fill:url(#SVGID_7_);}
	.st11{fill:url(#SVGID_8_);}
	.st12{fill:url(#SVGID_9_);}
	.st13{fill:url(#SVGID_10_);}
	.st14{fill:url(#SVGID_11_);}
	.st15{fill:#1B1B1B;}
	.st16{fill:url(#SVGID_12_);}
	.st17{fill:url(#SVGID_13_);}
	.st18{fill:url(#SVGID_14_);}
	.st19{fill:url(#SVGID_15_);}
	.st20{fill:url(#SVGID_16_);}
	.st21{fill:url(#SVGID_17_);}
	.st22{fill:url(#SVGID_18_);}
	.st23{fill:url(#SVGID_19_);}
	.st24{fill:url(#SVGID_20_);}
	.st25{fill:url(#SVGID_21_);}
	.st26{fill:url(#SVGID_22_);}
</style>
<path class="st2" d="M273.3,112l-2.3,18.8l-16.1-7.3l-39.8-26.7L183.4,97l-12.1,33.5l35.6,36.7l44.9,7.2l25.5,34.5l-1,8l-43,25.2
	l-43.5,24.6l-8.5,13.4l-12-0.7l-48-0.4l-17.3,1.2l-9.1-14.3l-43-24l-40.1-10.2L35.1,174l50.2-7.7l26.3-26.1l-9.9-42.9l-32.9-0.1
	L28,125L14,131.2l-3.2-16.1c0,0,15.9-97.6,132.7-97.6S273.3,112,273.3,112z M173.6,187.5l-25.3-49.6l-14.8,3.1l-11.4,21.1
	l-10.8,32.3l18.8,15.1l23.1-0.3L173.6,187.5L173.6,187.5z"/>
</svg>
